<?xml version="1.0" standalone="no"?>
<!DOCTYPE svg PUBLIC "-//W3C//DTD SVG 20010904//EN"
 "http://www.w3.org/TR/2001/REC-SVG-20010904/DTD/svg10.dtd">
<svg version="1.0" xmlns="http://www.w3.org/2000/svg"
 width="161.000000pt" height="161.000000pt" viewBox="0 0 161.000000 161.000000"
 preserveAspectRatio="xMidYMid meet">

<g transform="translate(0.000000,161.000000) scale(0.100000,-0.100000)"
fill="#FFFFFF" stroke="none">
<path d="M510 1456 l-285 -72 -3 -37 -3 -37 275 0 276 0 0 -60 c0 -57 1 -60
25 -60 22 0 24 4 27 58 l3 57 278 3 277 2 0 35 c0 18 -4 37 -10 40 -9 5 -569
146 -573 144 -1 0 -130 -33 -287 -73z"/>
<path d="M1125 1225 c-14 -13 -25 -29 -25 -35 0 -5 -13 -10 -30 -10 -20 0 -30
-5 -30 -15 0 -13 16 -15 103 -13 l102 3 -2 30 c-3 34 -36 64 -71 65 -13 0 -34
-11 -47 -25z"/>
<path d="M549 1230 c-7 -5 -31 -7 -51 -3 -33 5 -38 3 -43 -20 -4 -15 -16 -28
-30 -31 -22 -6 -23 -11 -23 -72 0 -59 3 -67 24 -76 13 -6 24 -17 24 -24 0 -16
37 -37 50 -29 6 4 10 -9 10 -29 l0 -35 -57 -3 -58 -3 -3 -72 -3 -73 136 0 135
0 0 75 0 75 -60 0 c-59 0 -60 0 -60 29 0 23 5 30 29 34 18 4 30 14 34 27 3 12
15 24 26 27 24 6 36 36 23 60 -7 11 -6 25 1 40 12 27 -5 53 -34 53 -12 0 -19
7 -19 20 0 24 -31 42 -51 30z m19 -106 c22 -46 -23 -88 -68 -64 -23 12 -28 58
-8 78 22 22 64 14 76 -14z"/>
<path d="M743 1109 c-3 -11 -11 -19 -19 -19 -19 0 -35 -33 -24 -50 5 -8 4 -22
-1 -33 -9 -15 -4 -25 25 -53 19 -19 42 -34 51 -34 11 0 15 -7 13 -22 -2 -19
-10 -24 -45 -26 l-43 -3 0 -55 0 -54 100 0 100 0 0 55 0 55 -45 0 c-41 0 -45
2 -45 25 0 19 5 25 21 25 12 0 23 8 26 19 3 11 13 21 23 24 15 4 19 15 19 62
0 47 -4 58 -19 62 -10 3 -20 13 -23 23 -7 27 -107 26 -114 -1z m87 -64 c14
-17 5 -51 -16 -59 -35 -13 -73 41 -47 67 12 12 50 7 63 -8z"/>
<path d="M1100 1121 c0 -4 9 -20 21 -35 15 -19 30 -26 54 -26 24 0 39 7 54 26
12 15 21 31 21 35 0 5 -34 9 -75 9 -41 0 -75 -4 -75 -9z"/>
<path d="M1054 1030 c-12 -4 -31 -21 -43 -36 -18 -23 -21 -40 -21 -130 l0
-104 30 0 30 0 0 86 c0 64 3 85 13 82 8 -3 13 -32 15 -86 l3 -82 94 0 94 0 3
82 c2 54 7 83 16 86 9 3 12 -18 12 -82 l0 -86 30 0 30 0 0 105 c0 119 -10 146
-62 164 -36 13 -214 14 -244 1z"/>
<path d="M272 398 c3 -287 4 -313 20 -316 16 -3 18 10 20 125 l3 128 273 3
272 2 0 -22 c0 -78 62 -166 144 -204 141 -66 308 7 352 153 19 63 18 71 -12
75 -21 2 -29 12 -43 56 -34 98 -106 148 -204 139 -91 -8 -156 -65 -179 -156
-9 -34 -15 -41 -34 -41 -20 0 -24 5 -24 33 0 53 47 134 99 172 78 57 155 68
244 35 62 -23 118 -77 146 -140 l20 -45 0 158 1 157 -550 0 -550 0 2 -312z
m788 -76 c0 -26 20 -42 52 -42 22 0 33 8 46 30 16 29 20 30 85 30 74 0 76 -2
55 -61 -50 -147 -249 -179 -341 -57 -26 34 -49 102 -39 112 3 3 36 6 74 6 59
0 68 -2 68 -18z"/>
</g>
</svg>
